<?xml version="1.0" standalone="no"?>
<!DOCTYPE svg PUBLIC "-//W3C//DTD SVG 20010904//EN"
 "http://www.w3.org/TR/2001/REC-SVG-20010904/DTD/svg10.dtd">
<svg version="1.0" xmlns="http://www.w3.org/2000/svg"
 width="219.000000pt" height="219.000000pt" viewBox="0 0 219.000000 219.000000"
 preserveAspectRatio="xMidYMid meet">
<metadata>
Created by potrace 1.11, written by Peter Selinger 2001-2013
</metadata>
<g transform="translate(0.000000,219.000000) scale(0.100000,-0.100000)"
fill="#000000" stroke="none">
<path d="M1979 2153 c-10 -27 -8 -93 6 -178 10 -60 -31 -196 -106 -354 l-64
-134 -12 59 c-7 33 -15 72 -18 87 -11 55 -76 203 -111 250 -43 59 -78 81 -154
97 -42 9 -74 10 -117 2 -94 -16 -176 -8 -282 28 -65 23 -117 27 -184 16 -45
-8 -50 -6 -78 20 -26 25 -36 28 -97 28 -63 -1 -76 -5 -201 -68 -124 -63 -138
-68 -180 -62 -122 16 -152 23 -175 46 -27 25 -97 37 -183 31 l-22 -1 0 -1000
c0 -1148 -11 -1046 101 -939 36 34 89 72 123 88 33 16 99 47 146 70 47 22 93
41 101 41 9 0 58 13 109 29 120 37 180 53 304 81 184 41 419 111 504 151 46
21 87 36 92 33 12 -7 58 27 120 88 40 39 51 59 69 120 12 40 37 118 57 173 53
151 72 220 79 299 5 50 13 80 29 101 24 33 27 37 146 280 57 114 95 179 118
200 85 76 91 84 91 135 0 56 -16 73 -39 41 -9 -12 -30 -38 -47 -58 -42 -49
-60 -36 -62 44 -3 141 -13 182 -45 183 -4 0 -12 -12 -18 -27z"/>
</g>
</svg>
